<?xml version="1.0" encoding="utf-8"?>
<!-- Generator: Adobe Adobe Illustrator 29.2.0, SVG Export Plug-In . SVG Version: 6.00 Build 0)  -->
<svg version="1.1" xmlns="http://www.w3.org/2000/svg" xmlns:xlink="http://www.w3.org/1999/xlink" x="0px" y="0px"
	 width="473.42px" height="191.08px" viewBox="0 0 473.42 191.08" style="enable-background:new 0 0 473.42 191.08;"
	 xml:space="preserve">
<style type="text/css">
	.st0{display:none;}
	.st1{display:inline;fill:none;stroke:#000000;stroke-width:4;stroke-miterlimit:10;}
	.st2{display:inline;fill:#FFFFFF;stroke:#000000;stroke-width:4;stroke-miterlimit:10;}
	.st3{display:inline;fill:#FFFFFF;stroke:#000000;stroke-miterlimit:10;}
	.st4{display:inline;stroke:#000000;stroke-miterlimit:10;}
	.st5{display:inline;}
	.st6{display:inline;fill:none;}
	.st7{display:inline;stroke:#FFFFFF;stroke-width:4;stroke-miterlimit:10;}
	.st8{fill:#FFFFFF;stroke:#000000;stroke-miterlimit:10;}
	.st9{stroke:#000000;stroke-miterlimit:10;}
	.st10{fill:none;stroke:#000000;stroke-miterlimit:10;}
	.st11{display:inline;fill:none;stroke:#000000;stroke-miterlimit:10;}
	.st12{fill:none;}
	.st13{fill:#FFFFFF;stroke:#000000;stroke-width:4;stroke-miterlimit:10;}
	.st14{stroke:#000000;stroke-width:4;stroke-linecap:round;stroke-linejoin:round;stroke-miterlimit:10;}
</style>
<g id="Layer_1" class="st0">
	<path class="st1" d="M91.44,123.12c0-39.03,18.13-55,40.5-55s40.5,20.46,40.5,55c0,35.44-18.13,55-40.5,55
		S91.44,160.02,91.44,123.12z"/>
	<line class="st2" x1="103.11" y1="113.37" x2="102.77" y2="133.19"/>
	<line class="st2" x1="163.11" y1="113.37" x2="162.77" y2="133.19"/>
	<line class="st2" x1="104.77" y1="123.79" x2="162.77" y2="123.12"/>
	<path class="st2" d="M235.44,123.12c0-39.03,18.13-55,40.5-55s40.5,20.46,40.5,55c0,35.44-18.13,55-40.5,55
		S235.44,160.02,235.44,123.12z"/>
	<line class="st2" x1="253.61" y1="118.37" x2="241.27" y2="129.19"/>
	<line class="st2" x1="303.11" y1="116.37" x2="312.27" y2="129.19"/>
	<path class="st2" d="M248.77,123.79c0,0,6.31,18.18,27.17,18.18c17.31,0,30.83-18.85,30.83-18.85"/>
	<ellipse class="st3" cx="262.93" cy="101.96" rx="6.5" ry="11.41"/>
	<ellipse class="st3" cx="289.85" cy="101.96" rx="6.5" ry="11.41"/>
	<ellipse class="st4" cx="262.93" cy="105.6" rx="4.32" ry="6.75"/>
	<ellipse class="st4" cx="289.85" cy="105.6" rx="4.32" ry="6.75"/>
	<g>
		<path class="st5" d="M372.09,40.83h11.04v12.48h11.67V40.83h11.04v33.6h-11.04V61.96h-11.67v12.48h-11.04V40.83z"/>
		<path class="st5" d="M413.75,40.83h18.34l8.45,33.6h-10.99l-1.3-5.28h-10.66l-1.3,5.28H405.3L413.75,40.83z M419.56,60.9h6.67
			l-2.78-11.43h-1.1L419.56,60.9z"/>
		<path class="st5" d="M440.01,40.83h20.59c7.3,0,11.76,4.32,11.76,11.23S467.9,63.3,460.6,63.3h-9.55v11.14h-11.04V40.83z
			 M458.44,54.66c1.54,0,2.78-0.72,2.78-2.59c0-1.97-1.25-2.59-2.78-2.59h-7.39v5.18H458.44z"/>
		<path class="st5" d="M472.07,40.83h20.59c7.3,0,11.76,4.32,11.76,11.23s-4.46,11.23-11.76,11.23h-9.55v11.14h-11.04V40.83z
			 M490.5,54.66c1.54,0,2.78-0.72,2.78-2.59c0-1.97-1.25-2.59-2.78-2.59h-7.39v5.18H490.5z"/>
	</g>
	<g>
		<rect x="410.44" y="187.43" class="st6" width="0" height="0"/>
	</g>
	<g>
		<path class="st5" d="M381.01,88.89h-9.6v-8.64h30.24v8.64h-9.6v24.96h-11.04V88.89z"/>
		<path class="st5" d="M404.14,80.24h11.04v12.48h11.67V80.24h11.04v33.6h-11.04v-12.48h-11.67v12.48h-11.04V80.24z"/>
		<path class="st5" d="M442.06,80.24h28.47v8.64h-17.62v3.84h17.62v8.64h-17.62v3.84h17.62v8.64h-28.47V80.24z"/>
		<path class="st5" d="M482.14,88.89h-9.6v-8.64h30.24v8.64h-9.6v24.96h-11.04V88.89z"/>
	</g>
	<g>
		<path class="st5" d="M404.72,193.27c0,0.32,0.06,0.54,0.19,0.67c0.13,0.13,0.35,0.21,0.67,0.24l3.74,0.43v1.82H395.7v-1.82
			l3.74-0.43c0.32-0.03,0.54-0.11,0.67-0.24c0.13-0.13,0.19-0.35,0.19-0.67v-13.25h-17.66v13.25c0,0.32,0.06,0.54,0.19,0.67
			c0.13,0.13,0.35,0.21,0.67,0.24l3.74,0.43v1.82h-13.63v-1.82l3.74-0.43c0.32-0.03,0.54-0.11,0.67-0.24
			c0.13-0.13,0.19-0.35,0.19-0.67v-27.6c0-0.35-0.06-0.58-0.19-0.7c-0.13-0.11-0.35-0.18-0.67-0.22l-3.74-0.43v-1.82h13.63v1.82
			l-3.74,0.43c-0.32,0.03-0.54,0.1-0.67,0.22c-0.13,0.11-0.19,0.34-0.19,0.7v12.05h17.66v-12.05c0-0.35-0.06-0.58-0.19-0.7
			c-0.13-0.11-0.35-0.18-0.67-0.22l-3.74-0.43v-1.82h13.63v1.82l-3.74,0.43c-0.32,0.03-0.54,0.1-0.67,0.22
			c-0.13,0.11-0.19,0.34-0.19,0.7V193.27z"/>
		<path class="st5" d="M444.75,193.27c0.16,0.35,0.32,0.59,0.48,0.72c0.16,0.13,0.4,0.22,0.72,0.29l2.93,0.34v1.82h-13.54v-1.82
			l3.89-0.38c0.58-0.03,0.86-0.21,0.86-0.53c0-0.16-0.08-0.43-0.24-0.82l-3.07-8.02h-12.96l-3.02,7.68
			c-0.16,0.38-0.24,0.66-0.24,0.82c0,0.26,0.29,0.43,0.86,0.53l4.08,0.72v1.82h-12.19v-1.82l3.22-0.72c0.64-0.13,1.04-0.43,1.2-0.91
			l12.24-30.48h2.74L444.75,193.27z M435.97,182.61l-3.98-10.37l-1.49-4.46l-5.81,14.83H435.97z"/>
		<path class="st5" d="M457.47,165.67c0-0.35-0.06-0.58-0.19-0.7c-0.13-0.11-0.35-0.18-0.67-0.22l-3.74-0.43v-1.82h14.69
			c4.06,0,7.12,0.82,9.17,2.47c2.05,1.65,3.07,4.01,3.07,7.08c0,3.07-1.12,5.49-3.36,7.25c-2.24,1.76-5.34,2.64-9.31,2.64h-5.23
			v11.33c0,0.32,0.06,0.54,0.19,0.67c0.13,0.13,0.35,0.21,0.67,0.24l4.13,0.43v1.82h-14.02v-1.82l3.74-0.43
			c0.32-0.03,0.54-0.11,0.67-0.24c0.13-0.13,0.19-0.35,0.19-0.67V165.67z M464.36,164.61c-0.91,0.03-1.74,0.1-2.47,0.19v15.02
			l4.56-0.05c2.75-0.03,4.86-0.72,6.34-2.06c1.47-1.34,2.21-3.28,2.21-5.81c0-2.37-0.66-4.18-1.97-5.45c-1.31-1.26-3.34-1.9-6.1-1.9
			C466.13,164.56,465.27,164.58,464.36,164.61z"/>
	</g>
</g>
<g id="Layer_2" class="st0">
	<g class="st5">
		<rect x="244.53" y="113.01" class="st12" width="0" height="0"/>
	</g>
	<g class="st5">
		<rect x="81.09" y="81.25" class="st12" width="0" height="0"/>
	</g>
	<g class="st5">
		<path d="M65.85,95.36h-1.79V68.84H33.13v26.52h-1.79V41.87h1.79v24.98h30.92V41.87h1.79V95.36z"/>
		<path d="M107.16,79.38H83.45l-5.39,15.98H76.1l18.12-53.49h2.19l18.12,53.49h-1.96L107.16,79.38z M84.12,77.4h22.38L95.32,44.26
			L84.12,77.4z"/>
		<path d="M129.22,72.77v22.59h-1.79V41.87h15.13c4.94,0,8.78,1.38,11.52,4.13c2.74,2.76,4.11,6.58,4.11,11.48
			c0,4.85-1.34,8.6-4.01,11.24c-2.67,2.65-6.47,3.99-11.39,4.04H129.22z M129.22,70.78h13.33c4.37,0,7.76-1.16,10.19-3.49
			c2.43-2.33,3.64-5.57,3.64-9.74c0-4.31-1.21-7.67-3.64-10.08c-2.43-2.41-5.82-3.62-10.19-3.62h-13.33V70.78z"/>
		<path d="M171.21,72.77v22.59h-1.79V41.87h15.13c4.94,0,8.78,1.38,11.52,4.13c2.74,2.76,4.11,6.58,4.11,11.48
			c0,4.85-1.34,8.6-4.01,11.24c-2.67,2.65-6.47,3.99-11.39,4.04H171.21z M171.21,70.78h13.33c4.37,0,7.76-1.16,10.19-3.49
			c2.43-2.33,3.64-5.57,3.64-9.74c0-4.31-1.21-7.67-3.64-10.08c-2.43-2.41-5.82-3.62-10.19-3.62h-13.33V70.78z"/>
		<path d="M225,73.25l16.96-31.37h2.2L225.9,75.05v20.32h-1.79V75.05l-18.25-33.17h2.39L225,73.25z"/>
	</g>
	<g class="st5">
		<rect x="238.44" y="159.94" class="st12" width="0" height="0"/>
	</g>
	<g class="st5">
		<path d="M65.56,104.1H47.93v51.51h-1.8V104.1H28.52v-1.98h37.04V104.1z"/>
		<path d="M111.61,155.61h-1.79v-26.52H78.89v26.52H77.1v-53.49h1.79v24.98h30.92v-24.98h1.79V155.61z"/>
		<path d="M154.04,129.08h-24.27v24.54h27.66v1.98h-29.46v-53.49h29.46v1.98h-27.66v23h24.27V129.08z"/>
		<path d="M202.69,104.1h-17.62v51.51h-1.8V104.1h-17.62v-1.98h37.04V104.1z"/>
		<path d="M237.11,139.63h-23.71l-5.39,15.98h-1.96l18.12-53.49h2.19l18.12,53.49h-1.96L237.11,139.63z M214.07,137.64h22.38
			l-11.17-33.14L214.07,137.64z"/>
	</g>
	<g class="st5">
		<rect x="236.54" y="84.78" class="st12" width="11.71" height="6.47"/>
	</g>
	<g class="st5">
		<rect x="362.4" y="79.25" class="st12" width="0" height="0"/>
	</g>
	<g class="st5">
		<path d="M312.13,44h5.72v20.62h20.7V44h5.72v49.36h-5.72V70.19h-20.7v23.17h-5.72V44z"/>
		<path d="M367.56,44h6.54l15.05,49.36h-6.06l-4.22-14.97h-16.28l-4.29,14.97h-5.79L367.56,44z M364.09,73.27h13.35l-2.11-7.45
			c-1.63-5.49-3.06-10.91-4.49-16.63h-0.27c-1.36,5.72-2.79,11.14-4.36,16.63L364.09,73.27z"/>
		<path d="M400.58,44h12.73c10.01,0,16.82,3.69,16.82,14.52c0,10.46-6.74,15.27-16.55,15.27h-7.29v19.56h-5.72V44z M412.91,68.68
			c7.76,0,11.51-3.16,11.51-10.16c0-7.07-3.95-9.41-11.78-9.41h-6.33v19.56H412.91z"/>
		<path d="M440.28,44h12.73c10.01,0,16.82,3.69,16.82,14.52c0,10.46-6.74,15.27-16.55,15.27H446v19.56h-5.72V44z M452.61,68.68
			c7.76,0,11.51-3.16,11.51-10.16c0-7.07-3.95-9.41-11.78-9.41H446v19.56H452.61z"/>
		<path d="M486.52,74.25L473.1,44h6.13l5.72,13.92c1.43,3.61,2.79,7.07,4.36,10.76h0.27c1.5-3.69,3.06-7.15,4.43-10.76L499.73,44
			h5.99l-13.48,30.25v19.11h-5.72V74.25z"/>
	</g>
	<g class="st5">
		<path d="M324.68,117.36H311.2v-5.34h32.76v5.34H330.4v44.02h-5.72V117.36z"/>
		<path d="M354.99,112.02h5.72v20.62h20.7v-20.62h5.72v49.36h-5.72V138.2h-20.7v23.17h-5.72V112.02z"/>
		<path d="M399.59,112.02h25.74v5.34h-20.02v15.42h16.89v5.34h-16.89v17.91h20.7v5.34h-26.42V112.02z"/>
		<path d="M447.39,117.36h-13.48v-5.34h32.76v5.34h-13.55v44.02h-5.72V117.36z"/>
		<path d="M485.86,112.02h6.54l15.05,49.36h-6.06l-4.22-14.97h-16.28l-4.29,14.97h-5.79L485.86,112.02z M482.39,141.29h13.35
			l-2.11-7.45c-1.63-5.49-3.06-10.91-4.49-16.63h-0.27c-1.36,5.72-2.79,11.14-4.36,16.63L482.39,141.29z"/>
	</g>
	<g class="st5">
		<rect x="415.7" y="159.25" class="st12" width="0" height="0"/>
	</g>
</g>
<g id="Layer_3">
	<g>
		<path class="st13" d="M4,98.11c0-61.94,31.27-87.29,69.83-87.29s69.83,32.47,69.83,87.29c0,56.24-31.27,87.29-69.83,87.29
			S4,156.68,4,98.11z"/>
		<line class="st13" x1="33.8" y1="89.82" x2="17.84" y2="107.75"/>
		<line class="st13" x1="120.67" y1="87.41" x2="136.47" y2="107.75"/>
		<path class="st14" d="M26.98,99.18c0,0,10.88,44.03,46.85,44.03c29.85,0,53.16-45.09,53.16-45.09L26.98,99.18z"/>
		<ellipse class="st8" cx="51.4" cy="64.53" rx="11.21" ry="18.11"/>
		<ellipse class="st8" cx="97.82" cy="64.53" rx="11.21" ry="18.11"/>
		<ellipse class="st9" cx="51.4" cy="70.31" rx="7.45" ry="10.71"/>
		<ellipse class="st9" cx="97.82" cy="70.31" rx="7.45" ry="10.71"/>
	</g>
	<g>
		<g>
			<rect x="245.81" y="52.82" class="st12" width="0" height="0"/>
		</g>
		<g>
			<path d="M169.5,12.87h8.68v31.3h31.43v-31.3h8.68v74.93h-8.68V52.63h-31.43v35.18h-8.68V12.87z"/>
			<path d="M253.65,12.87h9.92l22.85,74.93h-9.2l-6.41-22.73H246.1l-6.51,22.73h-8.79L253.65,12.87z M248.38,57.31h20.26L265.43,46
				c-2.48-8.34-4.65-16.56-6.82-25.24h-0.41c-2.07,8.68-4.24,16.91-6.62,25.24L248.38,57.31z"/>
			<path d="M303.79,12.87h19.33c15.2,0,25.53,5.6,25.53,22.05c0,15.88-10.23,23.19-25.12,23.19h-11.06v29.7h-8.68V12.87z
				 M322.5,50.34c11.79,0,17.47-4.8,17.47-15.42c0-10.74-6-14.28-17.88-14.28h-9.61v29.7H322.5z"/>
			<path d="M364.05,12.87h19.33c15.2,0,25.53,5.6,25.53,22.05c0,15.88-10.23,23.19-25.12,23.19h-11.06v29.7h-8.68V12.87z
				 M382.76,50.34c11.79,0,17.47-4.8,17.47-15.42c0-10.74-6-14.28-17.88-14.28h-9.61v29.7H382.76z"/>
			<path d="M434.24,58.79l-20.37-45.92h9.3l8.68,21.13c2.17,5.48,4.24,10.74,6.62,16.33h0.41c2.27-5.6,4.65-10.85,6.72-16.33
				l8.68-21.13h9.1l-20.47,45.92v29.01h-8.68V58.79z"/>
		</g>
		<g>
			<path d="M192.4,111.56h-20.47v-8.11h49.73v8.11h-20.57v66.82h-8.68V111.56z"/>
			<path d="M237.47,103.45h8.68v31.3h31.43v-31.3h8.68v74.93h-8.68V143.2h-31.43v35.18h-8.68V103.45z"/>
			<path d="M308.6,103.45h39.08v8.11h-30.39v23.42h25.64v8.11h-25.64v27.19h31.43v8.11H308.6V103.45z"/>
			<path d="M378.48,111.56h-20.47v-8.11h49.72v8.11h-20.57v66.82h-8.68V111.56z"/>
			<path d="M432.54,103.45h9.92l22.85,74.93h-9.2l-6.41-22.73H425l-6.51,22.73h-8.79L432.54,103.45z M427.27,147.89h20.26
				l-3.21-11.31c-2.48-8.34-4.65-16.56-6.82-25.24h-0.41c-2.07,8.68-4.24,16.91-6.62,25.24L427.27,147.89z"/>
		</g>
	</g>
</g>
</svg>
